<?xml version="1.0" encoding="UTF-8"?>
<svg id="Layer_1" data-name="Layer 1" xmlns="http://www.w3.org/2000/svg" viewBox="100 207.93 1462.62 910">
  <defs>
    <style>
      .cls-1 {
        fill: #17331c;
      }

      .cls-2 {
        fill: #7a3710;
      }
    </style>
  </defs>
  <g>
    <g>
      <path class="cls-1" d="m252.43,946.99v-2.94c0-1.47.91-2.38,2.49-2.6,3.05-.45,4.98-2.04,4.98-5.09v-51.68c0-3.85-1.58-5.65-4.41-6.45l-2.04-.57c-1.13-.34-2.04-1.24-2.04-2.6v-2.26c0-1.58,1.13-2.6,3.39-2.6h14.59c1.24,0,2.37.45,3.17,1.47l42.86,49.42c.68.79,1.81.34,1.81-.68v-37.21c0-3.05-1.92-4.64-4.98-5.09-1.58-.23-2.49-1.13-2.49-2.6v-2.94c0-1.36,1.47-2.37,2.71-2.37h18.55c1.24,0,2.71,1.02,2.71,2.37v2.94c0,1.47-.91,2.38-2.49,2.6-3.05.45-4.98,2.03-4.98,5.09v62.99c0,1.81-1.02,3.17-2.83,3.17h-1.81c-1.58,0-2.83-.68-3.62-1.7l-47.27-54.51c-.68-.79-1.81-.34-1.81.68v42.52c0,3.05,1.92,4.64,4.98,5.09,1.58.23,2.49,1.13,2.49,2.6v2.94c0,1.36-1.47,2.38-2.71,2.38h-18.55c-1.24,0-2.71-1.02-2.71-2.38Z"/>
      <path class="cls-1" d="m535.64,944.17v2.6c0,1.47-1.13,2.6-2.6,2.6h-28.95c-1.47,0-2.6-1.13-2.6-2.6v-2.6c0-1.36,1.02-2.49,2.37-2.6l2.15-.23c2.94-.34,3.96-1.92,2.94-4.52l-1.47-3.62c-.23-.68-.91-1.13-1.7-1.13h-31.33c-.79,0-1.47.45-1.7,1.13l-1.47,3.62c-1.02,2.6,0,4.18,2.94,4.52l2.15.23c1.36.11,2.38,1.24,2.38,2.6v2.6c0,1.47-1.13,2.6-2.6,2.6h-22.28c-1.47,0-2.6-1.13-2.6-2.6v-2.6c0-1.36,1.02-2.38,2.38-2.6l1.81-.34c2.94-.57,4.41-1.58,5.65-4.41l24.66-54.17c1.13-2.6.11-4.07-2.04-4.3-1.13-.11-2.04-1.13-2.04-2.71v-2.71c0-1.58,1.13-2.71,2.71-2.71h18.21c1.58,0,2.71,1.13,2.71,2.71v2.71c0,1.58-.9,2.6-2.04,2.71-2.37.34-3.05,1.92-2.04,4.3l24.66,54.17c1.24,2.83,1.81,3.84,5.2,4.41l2.15.34c1.36.23,2.37,1.24,2.37,2.6Zm-46.26-47.73l-11.65,25.67c-.22.57.11,1.13.68,1.13h23.64c.57,0,1.02-.57.79-1.13l-11.2-25.67c-.57-1.24-1.7-1.24-2.26,0Z"/>
      <path class="cls-1" d="m725.23,893.05h-1.58c-1.24,0-2.26-.9-2.37-2.15-1.02-6.56-4.3-13.12-15.95-13.12h-1.81c-.68,0-1.13.45-1.13,1.13v57.79c0,2.83,1.58,4.19,4.52,4.52l2.15.23c1.36.11,2.38,1.24,2.38,2.6v2.71c0,1.47-1.13,2.6-2.6,2.6h-28.95c-1.47,0-2.6-1.13-2.6-2.6v-2.71c0-1.36,1.02-2.49,2.37-2.6l2.15-.23c2.94-.34,4.52-1.7,4.52-4.52v-57.79c0-.68-.45-1.13-1.13-1.13h-1.81c-11.65,0-14.93,6.56-15.94,13.12-.11,1.24-1.13,2.15-2.38,2.15h-1.58c-1.58,0-2.94-1.13-2.6-2.83l1.47-17.76c0-1.24,1.25-2.26,2.49-2.26h59.03c1.24,0,2.37,1.02,2.49,2.26l1.47,17.76c.11,1.7-1.02,2.83-2.6,2.83Z"/>
      <path class="cls-1" d="m911.27,877.67c-1.13-.23-1.92-1.02-1.92-2.49v-2.49c0-1.47,1.02-2.6,2.49-2.49l10.63,1.02,10.63-1.02c1.47-.11,2.49,1.02,2.49,2.49v2.49c0,1.47-.79,2.26-1.92,2.49-3.73.79-6.33,2.04-6.33,6.33v33.93c0,20.24-12.66,33.02-31.67,33.02-20.69,0-32.34-12.78-32.34-33.02v-33.25c0-3.85-1.58-5.65-4.41-6.45l-2.04-.57c-1.13-.34-2.04-1.24-2.04-2.6v-2.38c0-1.58,1.13-2.83,3.39-2.6l13.01,1.24,13.23-1.24c2.26-.23,3.39,1.02,3.39,2.6v2.38c0,1.36-.9,2.26-2.04,2.6l-2.04.57c-2.83.79-4.41,2.6-4.41,6.45v34.61c0,13.8,7.01,21.26,19.34,21.26s19.11-7.46,19.11-21.26v-35.28c0-4.3-2.83-5.54-6.56-6.33Z"/>
      <path class="cls-1" d="m1061.2,946.77v-2.6c0-1.36,1.02-2.49,2.37-2.6l2.15-.23c2.94-.34,4.52-1.7,4.52-4.52v-53.95c0-2.83-1.58-4.18-4.52-4.52l-2.15-.23c-1.36-.11-2.37-1.24-2.37-2.6v-2.71c0-1.47,1.13-2.6,3.05-2.49l14.36,1.02,16.62-1.13c17.42-1.13,28.84,7.69,28.84,22.84,0,11.65-7.8,18.66-18.21,21.15-1.13.34-1.24,1.36-.11,1.92,2.83,1.47,4.86,3.62,6.45,6.56l10.18,16.17c.91,1.47,2.15,2.6,4.07,2.6h2.26c1.25,0,2.26,1.02,2.26,2.26v3.39c0,1.24-1.02,2.26-2.26,2.26h-17.64c-1.47,0-2.71-.9-3.39-2.15l-13.8-27.14c-1.58-3.05-2.94-4.07-6.45-4.18-.68,0-1.13.45-1.13,1.02v19.9c0,2.83,1.47,4.18,4.41,4.52l2.15.23c1.36.11,2.37,1.24,2.37,2.6v2.6c0,1.47-1.13,2.6-2.6,2.6h-28.84c-1.47,0-2.6-1.13-2.6-2.6Zm32.68-38c10.07,0,14.14-6.56,14.14-15.72,0-8.37-4.07-15.95-14.14-15.15l-3.05.23c-2.26.11-4.52,2.26-4.52,4.52v25.11c0,.57.45,1.02,1.02,1.02h6.56Z"/>
      <path class="cls-1" d="m1328.12,929.12l-1.47,17.42c-.11,1.58-1.47,2.83-3.05,2.83h-55.19c-1.47,0-2.6-1.13-2.6-2.6v-2.6c0-1.36,1.02-2.49,2.37-2.6l2.15-.23c2.94-.34,4.52-1.7,4.52-4.52v-54.06c0-2.83-1.58-4.18-4.52-4.52l-2.15-.23c-1.36-.11-2.37-1.24-2.37-2.6v-2.6c0-1.47,1.13-2.6,2.6-2.6h53.72c3.73,0,4.41,2.94,2.83,5.31l-3.05,4.64-1.7,5.88c-.45,1.7-1.47,2.49-2.6,2.49h-1.13c-1.47,0-2.49-1.02-2.94-2.49-1.13-5.43-4.63-7.46-10.18-7.46h-7.92c-2.26,0-4.52,2.26-4.52,4.52v19.9c0,.68.45,1.13,1.13,1.13h11.42c2.26,0,4.07-2.38,4.52-4.52.23-1.24,1.36-2.26,3.17-2.26h.45c1.81,0,3.39,1.36,3.17,3.17l-.91,7.24.91,8.37c.22,1.81-1.36,3.17-3.17,3.17h-.45c-1.81,0-2.94-.9-3.17-2.26-.45-2.26-2.26-4.52-4.52-4.52h-11.42c-.68,0-1.13.45-1.13,1.13v22.84c0,2.26,2.26,4.52,4.52,4.52h10.18c9.39,0,14.48-4.07,15.94-12.55.23-1.13,1.13-1.92,2.26-1.92h1.92c1.47,0,2.49,1.13,2.37,2.6Z"/>
    </g>
    <g>
      <path class="cls-1" d="m248.13,809.58v-8.06c0-4.02,2.48-6.5,6.81-7.12,8.36-1.24,13.63-5.27,13.94-13.95l6.82-149.62c.31-6.5-1.55-8.99-8.06-10.53-5.58-1.24-7.12-3.41-7.12-7.74v-6.5c0-5.27,3.41-7.44,8.99-6.82h49.25c4.65-.63,7.12.93,8.36,4.95l40.89,135.07c.93,3.41,4.03,3.41,5.26,0l44.61-135.07c1.24-4.02,3.72-5.58,8.36-4.95h47.71c5.57-.63,8.98,1.54,8.98,6.82v6.5c0,4.34-1.55,6.5-7.12,7.74-6.5,1.54-8.36,4.02-8.05,10.53l7.43,149.62c.31,8.67,5.58,13.02,13.94,13.95,4.96.62,7.12,2.78,7.12,6.5v8.67c0,3.72-1.86,6.5-5.58,6.5h-72.8c-3.4,0-7.43-2.78-7.43-6.5v-8.67c0-3.41,2.48-6.2,6.81-6.5,7.44-.63,14.25-5.27,13.94-14.25l-4.34-113.69c0-3.72-3.72-4.34-4.96-.63l-48.64,145.28c-.93,2.79-3.72,4.96-6.81,4.96h-9.91c-3.1,0-5.58-1.86-6.82-4.96l-45.23-147.14c-.93-3.41-5.26-3.41-5.26.63l-4.03,115.55c-.31,8.97,3.72,13.01,11.15,14.25,4.34.62,6.81,3.1,6.81,7.12v8.06c0,3.72-4.02,6.5-7.43,6.5h-50.18c-3.41,0-7.43-2.78-7.43-6.5Z"/>
      <path class="cls-1" d="m502.64,739.56c0-44.6,30.97-80.85,76.82-80.85,22.31,0,37.8,10.53,46.78,20.44,1.55,1.55,4.03,1.55,5.27.31l18.59-16.1c1.24-1.24,3.41-1.87,4.96-1.24l6.2,2.78c1.55.63,2.79,2.17,2.48,4.34l-3.72,25.4v77.13c0,8.06,4.34,12.39,12.39,13.63,3.72.62,6.2,2.78,6.2,6.19v4.03c0,2.17-1.24,4.64-4.34,5.58l-23.85,6.19-20.13,12.39c-3.1,1.86-5.58.62-7.44-.63l-1.86-1.24c-1.86-1.24-2.17-2.78-1.86-5.26l1.24-6.82c.62-3.41-2.17-3.41-3.72-1.86-10.53,10.53-21.37,16.42-42.75,16.42-36.55,0-71.25-30.35-71.25-80.86Zm118.33,0c0-21.99-9.29-56.07-38.41-56.07-31.6,0-39.04,34.07-39.04,56.07,0,23.23,7.44,57.31,39.04,57.31,28.5,0,38.41-34.07,38.41-57.31Z"/>
      <path class="cls-1" d="m690.59,809.89v-4.34c0-3.41,2.79-5.89,6.19-6.2,8.06-.93,12.39-5.26,12.39-13.32v-76.21c0-8.05-4.34-12.38-12.39-13.62-3.72-.63-6.19-2.79-6.19-6.2v-4.02c0-2.17,1.24-4.65,4.34-5.58l23.85-6.19,20.13-12.39c3.1-1.86,5.58-.93,7.43.63l1.86,1.23c1.86,1.24,2.17,2.79,1.86,5.27l-1.24,7.74c-.31,2.47,2.79,3.4,4.34,1.86,11.15-12.08,27.26-19.83,47.09-19.83,32.21,0,54.52,17.34,54.52,52.97v74.34c0,8.06,4.34,12.39,12.39,13.32,3.72.31,6.2,2.79,6.2,6.2v4.34c0,3.41-2.79,6.19-6.2,6.19h-65.67c-3.4,0-6.19-2.78-6.19-6.19v-4.34c0-3.41,2.79-5.89,6.19-6.2,8.06-.93,12.39-5.26,12.39-13.32v-72.17c0-20.45-12.39-29.74-29.12-29.74-19.52,0-34.69,15.18-34.69,40.58v61.33c0,8.06,4.34,12.39,12.39,13.32,3.72.31,6.2,2.79,6.2,6.2v4.34c0,3.41-2.79,6.19-6.2,6.19h-65.67c-3.4,0-6.19-2.78-6.19-6.19Z"/>
      <path class="cls-1" d="m879.44,739.56c0-44.6,30.97-80.85,76.82-80.85,15.18,0,26.95,4.65,35.62,11.15,1.86,1.24,4.03,0,4.03-2.17v-25.71c0-8.06-4.34-12.39-12.39-13.63-3.72-.62-6.2-2.78-6.2-6.19v-4.02c0-2.17,1.24-4.96,4.34-5.58l26.95-6.2,20.14-12.38c3.1-1.87,5.57-.63,7.43.62l1.86,1.24c1.86,1.24,2.17,2.78,1.86,5.26l-3.1,23.55v147.14c0,8.06,4.34,12.39,12.39,13.63,3.72.62,6.2,2.78,6.2,6.19v4.03c0,2.17-1.24,4.64-4.34,5.58l-23.85,6.19-20.13,12.39c-3.1,1.86-5.58.62-7.44-.63l-1.86-1.24c-1.86-1.24-2.17-2.78-1.86-5.26l1.24-6.82c.62-3.71-1.86-3.41-3.41-2.17-11.46,10.84-24.47,16.73-43.06,16.73-36.55,0-71.25-30.35-71.25-80.86Zm118.33,0c0-21.99-9.29-56.07-38.41-56.07-31.6,0-39.04,34.07-39.04,56.07,0,23.23,7.44,57.31,39.04,57.31,28.5,0,38.41-34.07,38.41-57.31Z"/>
      <path class="cls-1" d="m1061.81,739.56c0-44.6,30.97-80.85,76.82-80.85,22.31,0,37.8,10.53,46.78,20.44,1.55,1.55,4.03,1.55,5.27.31l18.59-16.1c1.24-1.24,3.41-1.87,4.96-1.24l6.2,2.78c1.55.63,2.79,2.17,2.48,4.34l-3.72,25.4v77.13c0,8.06,4.34,12.39,12.39,13.63,3.72.62,6.2,2.78,6.2,6.19v4.03c0,2.17-1.24,4.64-4.34,5.58l-23.85,6.19-20.13,12.39c-3.1,1.86-5.58.62-7.44-.63l-1.86-1.24c-1.86-1.24-2.17-2.78-1.86-5.26l1.24-6.82c.62-3.41-2.17-3.41-3.72-1.86-10.53,10.53-21.37,16.42-42.75,16.42-36.55,0-71.25-30.35-71.25-80.86Zm118.33,0c0-21.99-9.29-56.07-38.41-56.07-31.6,0-39.04,34.07-39.04,56.07,0,23.23,7.44,57.31,39.04,57.31,28.5,0,38.41-34.07,38.41-57.31Z"/>
      <path class="cls-1" d="m1309.23,692.79v93.24c0,8.06,4.34,12.71,12.39,13.32,3.72.31,6.2,2.79,6.2,6.2v4.34c0,3.41-2.79,6.19-6.2,6.19h-65.67c-3.4,0-6.19-2.78-6.19-6.19v-4.34c0-3.41,2.79-5.89,6.19-6.2,8.06-.62,12.39-5.26,12.39-13.32v-75.89c0-8.05-4.34-12.39-12.39-13.62-3.72-.63-6.19-2.79-6.19-6.2v-4.02c0-2.17,1.24-4.96,4.34-5.58l26.95-6.19,20.13-12.39c3.1-1.87,5.58-.63,7.44.62l1.86,1.24c1.86,1.24,2.17,2.79,1.86,5.26l-3.1,23.55Zm-45.85-76.21c0,13.94,11.46,25.4,25.4,25.4s26.02-11.47,26.02-25.4-11.77-26.02-26.02-26.02-25.4,11.77-25.4,26.02Z"/>
    </g>
  </g>
  <g>
    <path class="cls-2" d="m1204.55,455.03l-2.39,2.73c-1.35,1.55-3.4,2.32-5.45,2.06l-17.96-2.31c-38.41-3.1-89.22-16.43-89.22-16.43-52.4-13.01-85.47-4.54-91.64-2.68-.65.2-1.13.74-1.25,1.39-4.41,23.31-10.49,31.54-13.61,34.35-.87.79-.75,2.17.23,2.82,11.8,7.77,17.06,15.44,19.36,21.26,1.4,3.55-2.29,7.08-5.83,5.56-4.37-1.87-8.97-2.78-12.21-3.21-2.43-.33-4.89-.21-7.3.24-13.1,2.42-20.33-1.83-23.97-5.52-1.93-1.96-3.19-4.46-3.77-7.14-16.52-75.71-35.48-84.3-39.83-85.27-.54-.12-1.11.03-1.54.38-26.64,21.7-84.84,46.29-89.02,46.44-.48.02-.94.22-1.27.57-20.12,21.08-30.48,23.63-34.56,23.49-1.1-.04-1.99.89-1.89,1.97,1.86,19.64-.64,31.95-3.02,38.75-1.08,3.08-5.35,3.53-7.1.76l-34.21-53.95c-1.79-2.82-1.92-6.35-.35-9.29l13.27-24.9c.94-1.77-.93-2.8-2.85-2.18-253.24,81.53-401.53,31.06-403.51,28.42-4.52-6.03-1.9-11.23-1.39-12.13-3.6.05-7.12.09-10.51.13-23.59,22.1-53.41,53.55-77.04,83.06-3.19,3.98-7.75,21.04,6.68,15.99,66.04-23.14,166.31-36.78,282.49-23.58,133.25,15.13,155.86,62.02,291.07,65.46,77.63,1.98,306.68-22.26,411.15-129.32-9.29,3.09-23.7,3.56-41.53,2.11Zm-345.35,42.66c-7.53-.87-19.03-1.64-25.87.68-1.22.41-2.48.71-3.75.95-8.14,1.58-31.53,5.07-31.53-6.85v-13.5c0-.58.29-1.13.77-1.47,3.36-2.37,16.88-12.06,22.72-18.88.28-.33.66-.55,1.08-.62,3.11-.53,16.65-4.13,26.57-10.69,1.56-1.03,3.49.62,2.67,2.29l-10.77,22.92c-.43.88-.08,1.94.8,2.4,3.93,2.02,14.23,7.9,20.81,16.94,1.91,2.62-.27,6.22-3.51,5.84Zm276.83-8.53c-3.63.05-11.42.19-16.53,1.42-3.25.79-6.54,1.48-9.87,1.79-7.77.72-16.34.02-22.51-5.19-.47-.4-.9-.83-1.32-1.28l-37.86-40.44c-1.14-1.21-.18-3.17,1.49-3.04,11.85.96,42.83,4.1,52.73,11.19.17.12.32.28.44.45l9.14,16.89c.38.55,1.02.85,1.69.78,4.46-.44,14.89.5,25.53,9.65,3.1,2.66,1.18,7.72-2.93,7.78Z"/>
    <path class="cls-1" d="m1170.04,436.13c0-2.32-1.89-4.21-4.21-4.21s-4.21,1.89-4.21,4.21,1.89,4.21,4.21,4.21,4.21-1.89,4.21-4.21Z"/>
    <path class="cls-1" d="m1141.99,425.05c.98-.5,1.37-1.7.87-2.69-.5-.98-1.7-1.38-2.69-.88-.23.12-5.62,2.91-6.27,8.01-.42,3.32,1.22,6.64,4.87,9.88.38.34.85.5,1.32.5.55,0,1.1-.23,1.5-.67.73-.83.65-2.09-.17-2.82-2.6-2.3-3.8-4.44-3.56-6.36.37-2.98,4.05-4.94,4.12-4.97Z"/>
    <path class="cls-1" d="m479.57,334.43c-31.42,19.08-68.19,40.26-110.07,74.03,7.22-2.64,59.61-17.09,67.29-19.53,10.76-3.38,21.25-7.15,31.19-11.21,3.28-12.48,16.58-25.81,21.44-30.2.2-.21.74-.5,1.67.27.39.32,1.62,1.45,1.03,2.29-4.11,4.74-7.63,9.5-10.51,14.2-1.68,2.77-4.46,8.96-4.68,9.65,1.04-.46,52.74-26.71,56.82-28.94,3.83-2.09,7.66-4.19,11.5-6.28-.17-2.2,1.04-20.86,31.05-37.81.18-.11.92-.44,1.76.73.57.8.93,1.85.26,2.39-20.36,14.45-24.8,28.11-25.05,29.62-.04.25-.07.52-.09.78,3.43-1.84,6.53-3.48,9.43-5,13.9-7.34,28.16-14.09,42.37-20.04,27.74-11.75,58.03-20.42,90-25.75,2.33-.44,3.86-.03,4.08,1.1.22,1.13-1.03,2.08-3.36,2.55-31.64,5.67-61.5,14.59-88.78,26.52-14,6.06-28.04,12.9-41.75,20.35-3.07,1.65-6.12,3.32-9.17,5,1.71.96,18.95,13.4,85.25,4.51.8-.19,1.59.4,1.85,1.4.27,1.04-.15,1.98-1,2.23-7.46,1.8-70.47,17.92-94.21-3.62-3.81,2.13-7.61,4.27-11.42,6.4-4.02,2.26-38.09,21.15-53.71,28.36-1.81.85-3.64,1.67-5.47,2.49,10.58,16.44,46.34,16.81,53.95,17.02,7.25.2,14.37.05,21.16-.43.78-.09,1.45.56,1.6,1.59.16,1.07-.34,1.95-1.17,2.1-6.93.86-14.17,1.38-21.58,1.57-7.83.18-53.02.03-61.46-18.61-9.87,4.14-20.24,8-30.81,11.46-7.77,2.57-44.91,13.19-44.91,13.19-21.97,6.26-47.62,19.14-47.64,19.14-4.83,4.27-9.72,8.71-14.67,13.35,3.39-.04,6.91-.08,10.51-.13.05-.09.09-.15.09-.15,3.35-6.46,13.98-7.36,19.09-6.77.7.08,1.34-.26,1.74-.83,4.72-6.73,27.94-2.86,32.91-1.94.55.1,1.12-.04,1.53-.41,7.22-6.5,29.29-3.18,34.31-2.33.6.1,1.21-.1,1.62-.54,6.94-7.58,25.31-3.65,29.98-2.5.63.16,1.39.03,1.75-.51,2.69-4.09,26.89-.98,32.13.45.69.19,1.5.02,1.88-.57,3.16-4.84,29.61-3.01,35.22-2.2.68.1,1.33-.22,1.73-.77,5.17-7.02,30.33-4.21,36.77-3.37.77.1,1.56-.25,1.89-.94,4.18-8.69,33.63-8.93,40.87-8.86.83,0,1.54-.54,1.77-1.33,2.59-8.86,34.95-12.43,42.76-13.17.87-.08,1.55-.75,1.63-1.6,1-11.11,35.07-21.85,42.21-23.99.69-.2,1.21-.78,1.27-1.48.86-10.18,33.06-26.35,39.48-29.48.63-.31,1.01-.94,1.01-1.63-.09-11.48,28.44-27.65,34.78-31.1.7-.38,1.04-1.16.9-1.93-1.93-11.15,28.86-26.59,28.64-27.25-2.19-6.65,30.78-22.39,30.65-23.22-1.42-8.87,25.77-15.42,32.2-16.84.76-.17,1.28-.81,1.37-1.57,1.47-11.81,37.66-12.73,43.28-12.8.47,0,.91-.2,1.25-.52,2.16-2.06,4.77-3.4,7.63-4.22-265.54-.13-447.02,117.59-447.02,117.59Z"/>
    <path class="cls-1" d="m1325.4,432.08c-5.27-28.66-19.36-51.93-41.03-68.1-3.62-30.29-23.31-55.11-46.66-74.43-32.08-24.13-82.99-46.87-163.14-60.33-44.65-7.5-87.73-11.27-128.9-12.17,8.55,1.81,16.03,5.05,18.37,6.13.49.22,1.04.2,1.53,0,12.2-5.11,29.72,11.64,33.86,15.85.52.53,1.31.66,2.02.4,9.58-3.48,25.86,16.3,29.18,20.5.35.44.88.71,1.45.69,10.56-.49,20.09,20.79,22.25,25.96.27.64.89,1.06,1.6,1.1,9.97.57,17.59,21.12,19.34,26.26.2.6.74.98,1.37,1.12,6.1,1.38,17.17,29.77,17.17,29.77,6.37,18.98,40.37,40.08,42.39,41.32.07.04.13.07.2.1,21.21,9.02,40.41,28.01,45.38,33.17.68.7,1.25,1.47,1.74,2.3,3.06,5.16,16.63,19.36,22.58,25.49,1.59,1.64,1.66,4.18.15,5.9l-1.68,1.93c17.83,1.45,32.25.98,41.53-2.11,20.01-17.56,33.26-42.75,37.46-64.68,11.85,12.25,19.65,27.84,23.21,46.65,4.1,21.61.88,39.61.82,39.96-.96,5.11,17.66,8.03,18.52,3.51.16-.85,3.93-21.2-.68-46.28Zm-41.85-58.95c-.29,1.26-1.23,2.24-2.49,2.6-.37.11-.74.16-1.13.16-1.37,0-2.78-.7-4.08-1.93-18.22-17.12-40.72-33.79-40.72-33.79-7.18,5-57.62,34.67-97.8,20.12-.85-.31-1.34-1.04-1.13-1.93.22-.91,1.04-1.39,1.92-1.25,46.33,7.01,85.01-16.64,91.12-21.07,0,0-23.21-18.24-73.35-39.87-4.93-2.13-10.09-4.23-15.35-6.27-5.36,7.31-17.02,22.49-48.79,22.38,0,0,0,0,0,0-.54,0-1.13-.45-1.18-1.47-.05-1,.41-1.74,1.11-1.8,8.76-.49,33.12-4.38,42.34-21.6-1.66-.62-51.92-16.17-60.36-17.93-1.76-.33-2.41-1.42-2.26-2.29.15-.86,1.13-1.66,2.92-1.37,8.58,1.62,58.31,15.89,59.32,16.25-.56-1.45-5.87-17.81-29.14-30.19-.41-.22-.76-.86-.27-1.86.44-.9,1.17-1.31,1.82-1.02,3.83,2.01,27.77,11.53,35.29,35.82,57.18,21.12,89.37,43.88,89.37,43.88-.08-.38-8.99-28.27-31.71-45.68-.54-.43-.55-1.25,0-1.99.57-.76,1.42-1.01,2.04-.58,30.41,22.77,36.92,50.57,37.22,53.25,0,0,33.2,23.02,43.21,34.37,1.53,1.73,2.46,3.4,2.07,5.06Z"/>
  </g>
</svg>
