<svg id="" xmlns="http://www.w3.org/2000/svg"  class="LogoOBD LogoOBD--xl" width="300" height="57" viewBox="0 0 300 57" role="img" aria-labelledby="logo-obd-title"> <title id="logo-obd-title">October Big Day</title> <g fill="none" fill-rule="evenodd"> <path class="LogoOBD-october" fill="#212121" d="M26.72 43.268c0 1.863-.325 3.573-.977 5.13-.651 1.555-1.549 2.896-2.692 4.02-1.143 1.125-2.503 2-4.08 2.625-1.578.624-3.293.937-5.145.937-1.852 0-3.56-.313-5.127-.937-1.566-.625-2.92-1.5-4.064-2.625-1.143-1.124-2.035-2.465-2.675-4.02C1.32 46.84 1 45.13 1 43.267c0-1.886.32-3.607.96-5.163.64-1.556 1.532-2.885 2.675-3.987 1.143-1.102 2.498-1.96 4.064-2.573 1.566-.614 3.275-.92 5.127-.92 1.852 0 3.567.306 5.144.92 1.578.613 2.938 1.47 4.081 2.573 1.143 1.102 2.04 2.43 2.692 3.987.652 1.556.978 3.277.978 5.163zm-3.669 0c0-1.318-.217-2.562-.651-3.732a9.467 9.467 0 0 0-1.852-3.084 8.653 8.653 0 0 0-2.898-2.096c-1.132-.51-2.407-.766-3.824-.766-1.395 0-2.658.255-3.79.766a8.472 8.472 0 0 0-2.88 2.096 9.628 9.628 0 0 0-1.835 3.084 10.635 10.635 0 0 0-.652 3.732c0 1.34.218 2.601.652 3.783a9.235 9.235 0 0 0 1.852 3.084c.8.875 1.76 1.562 2.88 2.062 1.12.5 2.378.75 3.773.75s2.663-.25 3.807-.75a8.523 8.523 0 0 0 2.915-2.062 9.235 9.235 0 0 0 1.852-3.084c.434-1.182.651-2.442.651-3.783zm28.443 8.35c-.96 1.295-2.206 2.345-3.738 3.152-1.532.806-3.372 1.21-5.521 1.21-1.852 0-3.56-.313-5.127-.937-1.566-.625-2.915-1.5-4.047-2.625-1.131-1.124-2.017-2.465-2.658-4.02-.64-1.557-.96-3.267-.96-5.13 0-1.886.326-3.607.978-5.163.651-1.556 1.554-2.885 2.709-3.987 1.154-1.102 2.52-1.96 4.098-2.573 1.578-.614 3.292-.92 5.144-.92.823 0 1.658.08 2.504.238a12.52 12.52 0 0 1 2.434.716c.778.318 1.487.71 2.127 1.176a7.651 7.651 0 0 1 1.646 1.618l-2.675 2.045c-.595-.818-1.435-1.494-2.52-2.028a7.86 7.86 0 0 0-3.516-.8c-1.417 0-2.692.255-3.824.766a8.653 8.653 0 0 0-2.898 2.096 9.467 9.467 0 0 0-1.851 3.084 10.635 10.635 0 0 0-.652 3.732c0 1.363.211 2.636.634 3.817a9.158 9.158 0 0 0 1.818 3.084 8.386 8.386 0 0 0 2.88 2.062c1.132.5 2.396.75 3.79.75 1.372 0 2.618-.273 3.738-.818a7.185 7.185 0 0 0 2.778-2.386l2.71 1.84zm12.436 3.748h-3.395V34.203H52.75v-2.965h18.964v2.965H63.93v21.163zm32.896-12.098c0 1.863-.326 3.573-.977 5.13-.652 1.555-1.55 2.896-2.692 4.02-1.143 1.125-2.504 2-4.081 2.625-1.578.624-3.292.937-5.144.937-1.852 0-3.561-.313-5.127-.937-1.566-.625-2.921-1.5-4.064-2.625-1.143-1.124-2.035-2.465-2.675-4.02-.64-1.557-.96-3.267-.96-5.13 0-1.886.32-3.607.96-5.163.64-1.556 1.532-2.885 2.675-3.987 1.143-1.102 2.498-1.96 4.064-2.573 1.566-.614 3.275-.92 5.127-.92 1.852 0 3.566.306 5.144.92 1.577.613 2.938 1.47 4.08 2.573 1.144 1.102 2.041 2.43 2.693 3.987.651 1.556.977 3.277.977 5.163zm-3.67 0c0-1.318-.216-2.562-.65-3.732a9.467 9.467 0 0 0-1.853-3.084 8.653 8.653 0 0 0-2.898-2.096c-1.131-.51-2.406-.766-3.823-.766-1.395 0-2.658.255-3.79.766a8.472 8.472 0 0 0-2.88 2.096 9.628 9.628 0 0 0-1.835 3.084 10.635 10.635 0 0 0-.652 3.732c0 1.34.217 2.601.652 3.783a9.235 9.235 0 0 0 1.852 3.084c.8.875 1.76 1.562 2.88 2.062 1.12.5 2.378.75 3.773.75 1.394 0 2.663-.25 3.806-.75a8.523 8.523 0 0 0 2.915-2.062 9.235 9.235 0 0 0 1.852-3.084c.435-1.182.652-2.442.652-3.783zm7.18-12.03h8.367c.914 0 1.829.102 2.743.307a7.265 7.265 0 0 1 2.453 1.022 5.523 5.523 0 0 1 1.749 1.875c.445.772.668 1.738.668 2.896 0 1.34-.388 2.465-1.166 3.374-.777.909-1.806 1.534-3.086 1.875v.068c.777.09 1.497.29 2.16.596.663.307 1.235.71 1.715 1.21s.852 1.09 1.115 1.772c.262.682.394 1.443.394 2.283 0 1.159-.24 2.17-.72 3.033a6.142 6.142 0 0 1-1.955 2.13c-.823.557-1.789.977-2.898 1.261a14.263 14.263 0 0 1-3.55.426h-7.99V31.238zm3.394 10.19h4.424c.64 0 1.252-.074 1.835-.222a4.558 4.558 0 0 0 1.526-.681 3.348 3.348 0 0 0 1.029-1.159c.251-.466.377-1.028.377-1.687 0-1.295-.48-2.22-1.44-2.777-.96-.557-2.252-.835-3.875-.835h-3.876v7.36zm0 11.076h4.253c.709 0 1.423-.063 2.143-.188a6.299 6.299 0 0 0 1.955-.664 3.897 3.897 0 0 0 1.406-1.278c.354-.534.532-1.21.532-2.028 0-1.431-.492-2.465-1.475-3.101-.983-.636-2.4-.955-4.253-.955h-4.56v8.214zm21.345-.137h12.689v3H121.68V31.237h15.57v2.965h-12.175v7.225h11.454v2.897h-11.454v8.042zm19.938 3h-3.395V31.237h7.785c1.166 0 2.274.12 3.326.358s1.972.619 2.76 1.142a5.617 5.617 0 0 1 1.87 2.061c.457.852.686 1.892.686 3.119 0 1.772-.549 3.203-1.646 4.294-1.098 1.09-2.515 1.783-4.253 2.078l6.79 11.076h-4.115l-6.173-10.735h-3.635v10.735zm0-13.564h3.91c.8 0 1.543-.068 2.229-.205.686-.136 1.286-.358 1.8-.664.515-.307.92-.705 1.218-1.193.297-.489.445-1.096.445-1.823 0-.727-.148-1.335-.445-1.824a3.436 3.436 0 0 0-1.184-1.175c-.491-.296-1.068-.506-1.731-.63a11.28 11.28 0 0 0-2.092-.188h-4.15v7.702z"></path> <path class="LogoOBD-big" fill="#4CA800" fill-rule="nonzero" d="M223.181 53.548a19.509 19.509 0 0 1-4.94 1.774 25.297 25.297 0 0 1-5.248.543c-1.9 0-3.65-.294-5.25-.885-1.601-.591-2.984-1.437-4.151-2.54-1.166-1.101-2.075-2.436-2.727-4.004-.652-1.567-.977-3.317-.977-5.249 0-1.931.325-3.68.977-5.248.652-1.57 1.56-2.903 2.727-4.006 1.167-1.102 2.55-1.946 4.151-2.54 1.6-.59 3.35-.886 5.25-.886 1.943 0 3.733.234 5.369.7a10.546 10.546 0 0 1 4.305 2.403l-3.774 4.089a7.538 7.538 0 0 0-2.47-1.703c-.915-.386-2.058-.58-3.43-.58-1.145 0-2.18.194-3.105.58a6.987 6.987 0 0 0-2.385 1.618 7.095 7.095 0 0 0-1.526 2.47c-.355.955-.532 1.99-.532 3.102 0 1.137.177 2.176.532 3.12.354.942.862 1.76 1.526 2.452a6.953 6.953 0 0 0 2.385 1.618c.926.387 1.96.58 3.105.58 1.165 0 2.171-.13 3.018-.391.846-.262 1.52-.529 2.025-.801v-3.92h-4.358v-4.908h9.503v12.612zm-31.39-22.425h5.352v24.13h-5.353v-24.13zm-21.306 0h9.057c1.052 0 2.11.074 3.174.222 1.063.148 2.018.443 2.864.887a5.487 5.487 0 0 1 2.06 1.856c.525.797.789 1.853.789 3.17 0 1.362-.385 2.494-1.15 3.393-.767.897-1.779 1.54-3.037 1.924v.068c.8.115 1.527.336 2.179.665.651.33 1.212.75 1.68 1.261a5.395 5.395 0 0 1 1.081 1.79c.251.681.378 1.408.378 2.18 0 1.273-.275 2.336-.823 3.188a6.457 6.457 0 0 1-2.127 2.06c-.87.524-1.848.898-2.935 1.126-1.085.227-2.166.34-3.241.34h-9.95v-24.13h.001zm5.353 9.645h3.877c.412 0 .817-.045 1.218-.136.4-.09.76-.239 1.081-.442.32-.204.577-.477.772-.819.195-.34.293-.75.293-1.226 0-.5-.111-.914-.327-1.244a2.275 2.275 0 0 0-.84-.767 4.032 4.032 0 0 0-1.167-.392 7.075 7.075 0 0 0-1.27-.12h-3.636v5.146zm0 9.986h4.804c.411 0 .828-.045 1.252-.136.423-.09.806-.25 1.15-.477a2.73 2.73 0 0 0 .84-.887c.217-.363.326-.806.326-1.329 0-.567-.143-1.027-.43-1.38a2.722 2.722 0 0 0-1.079-.8 5.575 5.575 0 0 0-1.407-.376 10.68 10.68 0 0 0-1.407-.102h-4.048v5.487z"></path> <path class="LogoOBD-checkbox" fill="#4CA800" fill-rule="nonzero" d="M186.668 9.67v15.338h15.44V9.669h-15.44zm-1.343-1.334h18.126v18.006h-18.126V8.336z"></path> <path class="LogoOBD-checkAndDay" fill="#212121" fill-rule="nonzero" d="M210.745 1l.502.866c-3.272 2.297-6.304 5.204-9.096 8.72-2.792 3.518-4.807 6.96-6.047 10.334l-.737.484c-.637.41-1.185.82-1.642 1.23-.078-.398-.296-1.042-.653-1.93l-.385-.95c-.838-2.051-1.544-3.484-2.118-4.3-.576-.816-1.199-1.257-1.868-1.323.904-.822 1.692-1.233 2.361-1.233.928 0 1.944 1.237 3.05 3.71l.603 1.333a49.254 49.254 0 0 1 7.161-9.718c2.797-2.962 5.752-5.37 8.87-7.222M287.037 44.858l-9.057-13.734h3.67l6.829 10.905 7.031-10.905h3.467l-9.058 13.734v10.395h-2.882V44.858zm-18.593-13.734h2.71l10.326 24.129h-3.361l-2.471-5.93h-12.144L261 55.252h-3.26l10.705-24.13zm1.302 3.681h-.068l-5.043 11.86h9.915l-4.804-11.86zm-34.239-3.681h9.332c.8 0 1.647.09 2.54.27a12.492 12.492 0 0 1 5.197 2.42 10.338 10.338 0 0 1 2.143 2.302c.617.897 1.109 1.932 1.476 3.102.365 1.17.548 2.493.548 3.97 0 1.476-.183 2.8-.548 3.97-.367 1.172-.859 2.205-1.476 3.102a10.373 10.373 0 0 1-2.143 2.3 12.472 12.472 0 0 1-2.539 1.552c-.88.397-1.766.687-2.659.868-.892.183-1.738.273-2.54.273h-9.33v-24.13zm2.883 21.47h5.489c1.395 0 2.688-.182 3.877-.545 1.188-.363 2.218-.926 3.087-1.687.87-.76 1.555-1.733 2.06-2.915.501-1.18.753-2.6.753-4.26 0-1.658-.252-3.079-.754-4.26-.503-1.18-1.189-2.153-2.06-2.914-.868-.76-1.898-1.324-3.086-1.687-1.19-.364-2.482-.546-3.877-.546h-5.489v18.814z"></path> <path class="LogoOBD-clo" fill="#000" d="M4.844 8.384v10.834h1.054V8.384h3.777v-.94h-8.61v.94h3.75zM14.294 11.394c-1.254-.001-2.265.692-2.666 1.53l-.008.018H11.565V7.444h-.953v11.774h.953v-3.811c.002-2.124 1.211-3.17 2.728-3.174 1.624.004 1.984 1.242 1.986 2.491v4.494h.952v-4.544c-.002-1.676-.527-3.276-2.937-3.28zM22.59 18.578c-2.384 0-2.979-2.083-2.982-2.922v-.029h6.546v-.67c-.002-1.767-1.254-3.562-3.63-3.563-2.262.002-3.868 1.715-3.869 3.997.002 2.364 1.555 4.027 3.918 4.028 1.368 0 2.547-.472 3.335-1.612l-.695-.577c-.522.826-1.597 1.347-2.623 1.348zm-2.982-3.82c.001-.413.631-2.52 2.864-2.525 1.516.004 2.729 1.143 2.729 2.524v.029h-5.593v-.029zM35.444 10.503c-.523-.615-1.282-.964-2.26-.964-1.991 0-3.458 1.596-3.458 3.792 0 2.196 1.467 3.792 3.374 3.792 1.062 0 1.922-.466 2.463-1.264l2.192 1.613c-.995 1.396-2.683 2.046-4.32 2.046-3.727 0-6.443-2.412-6.443-6.188 0-3.775 2.716-6.187 6.444-6.187 1.333 0 3.02.449 4.032 1.73l-2.024 1.63zM42.32 10.936c2.53 0 4.554 1.664 4.554 4.241 0 2.578-2.023 4.242-4.554 4.242-2.53 0-4.554-1.664-4.554-4.242 0-2.577 2.024-4.241 4.554-4.241zm0 6.287c1.265 0 2.024-.831 2.024-2.046 0-1.214-.759-2.045-2.024-2.045-1.266 0-2.024.831-2.024 2.045 0 1.215.76 2.046 2.024 2.046zM47.81 11.136h2.531v1.298h.033c.54-.982 1.25-1.497 2.363-1.497.287 0 .607.016.843.083v2.279c-.355-.1-.71-.167-1.08-.167-1.923 0-2.16 1.098-2.16 2.711v3.376h-2.53v-8.083zM54.302 11.136h2.429v1.097h.034c.336-.632 1.164-1.297 2.395-1.297 2.564 0 3.036 1.664 3.036 3.825v4.457h-2.53V15.26c0-.93-.017-2.128-1.315-2.128-1.316 0-1.518 1.015-1.518 2.063v4.024h-2.531v-8.082zM71.07 17.821c-.809 1.016-2.142 1.597-3.457 1.597-2.53 0-4.555-1.664-4.555-4.242 0-2.577 2.024-4.241 4.555-4.241 2.361 0 3.845 1.664 3.845 4.241v.783h-5.87c.203.948.928 1.563 1.906 1.563.827 0 1.383-.416 1.805-.982l1.771 1.281zm-2.142-3.558c.017-.83-.641-1.53-1.552-1.53-1.113 0-1.72.747-1.788 1.53h3.34zM72.353 13.321V7.444h2.53V19.218h-2.53zM76.369 13.321V7.444h2.53V19.218h-2.53zM81.872 13.321V7.444h-1.055V19.218h5.922v-.938h-4.867zM93.59 14.143c-.004-1.931-1.193-2.744-3.075-2.75-.996 0-2.192.376-2.928 1.055l.552.64a3.58 3.58 0 0 1 2.376-.854c1.255.003 2.22.544 2.223 1.892v.495h-1.211c-.766 0-1.843.06-2.724.408-.881.349-1.564.982-1.565 2.142 0 1.608 1.395 2.247 2.721 2.25 1.308-.002 2.136-.46 2.707-1.434l.009-.014h.08v.03c0 .422.033.844.096 1.217h.887c-.115-.87-.147-1.718-.147-3.198v-1.88h-.001zm-.852 1.762c0 .644-.14 1.313-.555 1.822-.415.507-1.105.852-2.189.852h-.002c-.852-.002-1.799-.488-1.8-1.459.006-1.346 1.716-1.757 3.404-1.757h1.143v.542h-.001zM99.271 11.393c-1.157 0-2.479.482-3.095 1.533l-.009.016h-.08V7.444h-.953v11.774h.953v-1.347h.08l.01.016c.615 1.051 1.937 1.531 3.094 1.531 2.381 0 4.068-1.682 4.07-4.011-.002-2.331-1.689-4.012-4.07-4.014zm0 7.185c-1.854-.002-3.282-1.426-3.285-3.171.003-1.746 1.431-3.17 3.285-3.173 1.923.003 3.113 1.429 3.117 3.173-.004 1.742-1.194 3.17-3.117 3.171z"></path> <g class="LogoOBD-sapsucker"> <path fill="#FFF" d="M131.925 4.688c-.348-.123-1.384-.443-1.826-.58-.443-.138-1.701-.495-2.068-.603a3.599 3.599 0 0 0-.386-.423c-1.22-1.274-3.077-2.034-4.97-2.034-2.15 0-3.76.696-4.312.97H90.286v.78c0 1.171 1.378 2.055 3.207 2.055h7.738l6.264 4.34v6.656c0 3.283 1.765 6.253 4.72 7.948 2.472 1.419 3.963 1.532 5.654 1.532l.368-.002.387-.001h.795V11.474l.53-.383 6.882-4.975s3.617-.22 4.535-.278c.51-.031 1.084-.079 1.485-.125.368-.043.518-.157.518-.251 0-.113-.068-.158-.154-.22-.071-.054-.617-.315-1.29-.554z"></path> <path fill="#000" d="M132.082 5.199s-3.266-.845-4.521-.954c0 0-4.97 2.63-6.362 3.513a3.713 3.713 0 0 0-1.72 2.705l7.092-5.125h5.559c.141 0-.048-.14-.048-.14z"></path> <path fill="#000" d="M120.595 7.272c1.455-.952 6.48-3.649 6.48-3.649l.007.008c-.861-.906-2.426-1.803-4.406-1.803-2.434 0-4.113.97-4.113.97H91.082c0 .722 1.112 1.275 2.412 1.275h7.991l6.807 4.718v7.058c0 3.065 1.64 5.736 4.326 7.276 2.684 1.54 4.03 1.423 6.007 1.423V11.08c0-1.187.365-2.756 1.97-3.808zm4.338-3.285c0 .27-.225.49-.5.49s-.499-.22-.499-.49.225-.489.5-.489c.274 0 .5.22.5.489zm-6.286 2.043l3.116-1.69 1.37.11-4.486 2.44v-.86z"></path> <path fill="#F0E614" d="M101.485 4.074h11.455c-2.56 0-4.648 2.017-4.648 4.718l-6.807-4.718z"></path> <path fill="#E60000" d="M126.45 3.962a6.373 6.373 0 0 0-4.022-1.447v-.683l.248-.004c1.978 0 3.538.892 4.399 1.795l-.624.339zM126.57 5.338l-4.963 3.588s-.06-.525.688-1.116c.747-.591 5.266-3.564 5.266-3.564l-.99 1.092z"></path> <path fill="#FFF" d="M116.54 14.508v-2.4c0-1.009-.42-1.708-1.377-2.372l-4.057-2.81a2.72 2.72 0 0 0-.73 1.867c0 .906.442 1.709 1.125 2.219l5.039 3.496z"></path> </g> </g> </svg>
